<mxfile host="app.diagrams.net" modified="2024-02-18T22:33:01.623Z" agent="Mozilla/5.0 (Windows NT 10.0; Win64; x64) AppleWebKit/537.36 (KHTML, like Gecko) Chrome/117.0.0.0 Safari/537.36" version="23.1.5" etag="0uxPiLTtQqYSO3y4gNfW" type="github">
  <diagram name="PÃ¡gina-1" id="wx4DX0p0iBlFNgX7QUlA">
    <mxGraphModel>
      <root>
        <mxCell id="0" />
        <mxCell id="1" parent="0" />
      </root>
    </mxGraphModel>
  </diagram>
</mxfile>
